<?xml version="1.0" encoding="UTF-8" standalone="no"?>
<!-- Generator: Adobe Illustrator 22.0.0, SVG Export Plug-In . SVG Version: 6.00 Build 0)  -->

<svg
   xmlns:dc="http://purl.org/dc/elements/1.1/"
   xmlns:cc="http://creativecommons.org/ns#"
   xmlns:rdf="http://www.w3.org/1999/02/22-rdf-syntax-ns#"
   xmlns:svg="http://www.w3.org/2000/svg"
   xmlns="http://www.w3.org/2000/svg"
   xmlns:sodipodi="http://sodipodi.sourceforge.net/DTD/sodipodi-0.dtd"
   xmlns:inkscape="http://www.inkscape.org/namespaces/inkscape"
   version="1.1"
   id="Layer_1"
   x="0px"
   y="0px"
   viewBox="0 0 153.3 36.9"
   style="enable-background:new 0 0 153.3 36.9;"
   xml:space="preserve"
   sodipodi:docname="modulr.svg"
   inkscape:version="0.92.3 (2405546, 2018-03-11)"><metadata
   id="metadata863"><rdf:RDF><cc:Work
       rdf:about=""><dc:format>image/svg+xml</dc:format><dc:type
         rdf:resource="http://purl.org/dc/dcmitype/StillImage" /></cc:Work></rdf:RDF></metadata><defs
   id="defs861" /><sodipodi:namedview
   pagecolor="#ffffff"
   bordercolor="#666666"
   borderopacity="1"
   objecttolerance="10"
   gridtolerance="10"
   guidetolerance="10"
   inkscape:pageopacity="0"
   inkscape:pageshadow="2"
   inkscape:window-width="1680"
   inkscape:window-height="987"
   id="namedview859"
   showgrid="false"
   inkscape:zoom="2.2765818"
   inkscape:cx="84.556592"
   inkscape:cy="18.450001"
   inkscape:window-x="1358"
   inkscape:window-y="-8"
   inkscape:window-maximized="1"
   inkscape:current-layer="Layer_1" />
<style
   type="text/css"
   id="style842">
	.st0{fill:#414042;}
</style>
<g
   id="g856"
   transform="translate(-0.87851005,-54.467623)">
	<path
   class="st0"
   d="m 16.4,18.5 c 0,-0.7 0.3,-1 1,-1 h 4.3 V 35 h 7.7 V 17.4 h 4.4 c 0.7,0 1,0.3 1,1 v 16.5 h 7.6 V 15.7 c 0,-4.1 -2,-6.1 -6,-6.1 H 14.7 c -4,0 -6,2 -6,6.1 V 35 h 7.7 c 0,-0.1 0,-16.5 0,-16.5 z"
   id="path844"
   inkscape:connector-curvature="0"
   style="fill:#414042" />
	<path
   class="st0"
   d="m 50.8,34.9 h 10.9 c 3.9,0 5.9,-2 5.9,-6 V 15.7 c 0,-4.1 -2,-6.1 -6,-6.1 H 50.7 c -4,0 -6,2 -6,6.1 V 29 c 0,3.9 2,5.9 6.1,5.9 z M 52.5,26 v -7.5 c 0,-0.7 0.3,-1 1,-1 h 5.4 c 0.7,0 1,0.3 1,1 v 7.6 c 0,0.7 -0.3,1 -1,1 h -5.4 c -0.7,0 -1,-0.3 -1,-1.1 z"
   id="path846"
   inkscape:connector-curvature="0"
   style="fill:#414042" />
	<path
   class="st0"
   d="M 75.8,34.9 H 92.6 V 2.3 h -7.8 v 7.3 h -9.2 c -4,0 -6,2 -6,6.1 V 29 c 0,3.9 2.1,5.9 6.2,5.9 z M 77.4,26 v -7.5 c 0,-0.7 0.3,-1 1,-1 h 6.4 v 9.7 h -6.4 c -0.7,-0.1 -1,-0.4 -1,-1.2 z"
   id="path848"
   inkscape:connector-curvature="0"
   style="fill:#414042" />
	<path
   class="st0"
   d="m 101,34.9 h 10.5 c 3.9,0 5.9,-2 5.9,-6 V 9.6 h -7.7 v 16.5 c 0,0.7 -0.3,1 -1,1 h -5 c -0.7,0 -1,-0.4 -1,-1.1 V 9.6 H 94.9 V 29 c 0,3.9 2,5.9 6.1,5.9 z"
   id="path850"
   inkscape:connector-curvature="0"
   style="fill:#414042" />
	<rect
   x="119.7"
   y="2.3"
   class="st0"
   width="7.8000002"
   height="32.700001"
   id="rect852"
   style="fill:#414042" />
	<path
   class="st0"
   d="m 135.9,9.6 c -4.1,0 -6.1,2 -6.1,6.1 V 35 h 7.8 V 18.4 c 0,-0.7 0.3,-1 1,-1 h 5.7 V 9.6 c 0,0 -8.4,0 -8.4,0 z"
   id="path854"
   inkscape:connector-curvature="0"
   style="fill:#414042" />
</g>
<g
   aria-label="COFA"
   style="font-style:normal;font-variant:normal;font-weight:normal;font-stretch:normal;font-size:32px;line-height:1.25;font-family:'Space Ranger';-inkscape-font-specification:'Space Ranger';letter-spacing:0px;word-spacing:0px;fill:#000000;fill-opacity:1;stroke:none"
   id="text1410"
   transform="matrix(1.8914952,0,0,1.8914952,-65.232182,-15.345648)"><path
     d="m 38.285149,25.918625 h 15.488 v -4.32 h -13.44 v -7.456 h 13.44 V 9.8226249 h -15.488 q -0.448,0 -0.928,0.2240001 -0.448,0.224 -0.832,0.608 -0.352,0.352 -0.576,0.832 -0.224,0.448 -0.224,0.928 v 10.912 q 0,0.48 0.224,0.96 0.224,0.448 0.576,0.832 0.384,0.352 0.832,0.576 0.48,0.224 0.928,0.224 z"
     id="path1412"
     inkscape:connector-curvature="0" /><path
     d="m 73.226149,9.8226249 h -14.816 q -0.448,0 -0.928,0.2240001 -0.448,0.224 -0.832,0.608 -0.352,0.352 -0.576,0.832 -0.224,0.448 -0.224,0.928 v 10.912 q 0,0.48 0.224,0.96 0.224,0.448 0.576,0.832 0.384,0.352 0.832,0.576 0.48,0.224 0.928,0.224 h 14.816 q 0.448,0 0.896,-0.224 0.48,-0.224 0.832,-0.576 0.384,-0.384 0.608,-0.832 0.224,-0.48 0.224,-0.96 v -10.912 q 0,-0.48 -0.224,-0.928 -0.224,-0.48 -0.608,-0.832 -0.352,-0.384 -0.832,-0.608 -0.448,-0.2240001 -0.896,-0.2240001 z m -2.048,4.3200001 v 7.456 h -10.72 v -7.456 z"
     id="path1414"
     inkscape:connector-curvature="0" /><path
     d="m 82.458149,25.918625 v -6.08 h 13.408 v -3.936 h -13.408 v -1.76 h 13.44 V 9.8226249 h -15.488 q -0.448,0 -0.928,0.2240001 -0.448,0.224 -0.832,0.608 -0.352,0.352 -0.576,0.832 -0.224,0.448 -0.224,0.928 v 13.504 z"
     id="path1416"
     inkscape:connector-curvature="0" /><path
     d="m 109.9519,15.198625 v 4.192 h -5.216 l 3.136,-3.808 q 0.288,-0.32 0.64,-0.64 0.384,-0.32 0.736,-0.32 0.32,0 0.512,0.192 0.192,0.192 0.192,0.384 z m 4.608,-1.728 q 0,-1.056 -0.32,-1.76 -0.32,-0.704 -0.896,-1.12 -0.576,-0.416 -1.376,-0.576 -0.8,-0.1920001 -1.792,-0.1920001 -1.28,0 -2.592,0.2560001 -1.28,0.256 -2.016,0.896 l -11.200001,14.944 h 5.408 l 2.112001,-2.656 h 8.064 v 2.656 h 4.608 z"
     id="path1418"
     inkscape:connector-curvature="0" /></g></svg>